# xmcd
#
# Track frame offsets:
#	150
#	12302
#	31287
#	49560
#	77835
#	89867
#	105722
#	121725
#	144457
#	159217
#	178197
#	191592
#	210375
#	230052
#
# Disc length: 3242 seconds
# Revision: 0
# Processed by: cddbd v1.5.2PL0 Copyright (c) Steve Scherf et al.
# Submitted via: dBpowerAMP V12.0
#
DISCID=b60ca80e
DTITLE=Slaid Cleaves - Life's Other Side
DYEAR=1992
DGENRE=Americana
TTITLE0=Life's Other Side
TTITLE1=Willie of the Wind
TTITLE2=Justice
TTITLE3=Live Free
TTITLE4=Vacationland
TTITLE5=Tell Me
TTITLE6=Too Sentimental
TTITLE7=Diamond Ring
TTITLE8=Key Chain
TTITLE9=Ramblin' Man
TTITLE10=The Gun Story
TTITLE11=The Rain Song
TTITLE12=Don't Say No
TTITLE13=Hope Is a Hard Thing to Kill
EXTD=
EXTT0=
EXTT1=
EXTT2=
EXTT3=
EXTT4=
EXTT5=
EXTT6=
EXTT7=
EXTT8=
EXTT9=
EXTT10=
EXTT11=
EXTT12=
EXTT13=
PLAYORDER=
